<svg width="350" height="56" viewBox="0 0 350 56" fill="none" xmlns="http://www.w3.org/2000/svg">
<path d="M25.975 21.0451C28.3131 21.5931 30.1215 22.7256 31.4002 24.4427C32.7154 26.1232 33.373 28.0778 33.373 30.3063C33.373 33.7039 32.2404 36.3343 29.9754 38.1975C27.7468 40.0242 24.5319 40.9375 20.3306 40.9375H-0.000234372V2.1391H19.7826C23.7282 2.1391 26.8335 2.99763 29.0986 4.7147C31.3636 6.43177 32.4962 8.9343 32.4962 12.2223C32.4962 14.4874 31.8934 16.4054 30.6878 17.9763C29.5187 19.5107 27.9478 20.5336 25.975 21.0451ZM12.1654 17.2639H16.8782C17.9742 17.2639 18.7779 17.0447 19.2894 16.6063C19.8374 16.1679 20.1114 15.492 20.1114 14.5787C20.1114 13.6288 19.8374 12.9347 19.2894 12.4963C18.7779 12.0214 17.9742 11.7839 16.8782 11.7839H12.1654V17.2639ZM17.7002 31.1831C18.7962 31.1831 19.5999 30.9822 20.1114 30.5803C20.6594 30.1419 20.9334 29.4478 20.9334 28.4979C20.9334 26.6347 19.8556 25.7031 17.7002 25.7031H12.1654V31.1831H17.7002ZM70.1763 10.0303V40.9375H58.0107V36.2247C57.0608 37.686 55.7822 38.8734 54.1747 39.7867C52.6038 40.7 50.7223 41.1567 48.5303 41.1567C44.9866 41.1567 42.21 39.9694 40.2007 37.5947C38.2279 35.22 37.2415 32.0051 37.2415 27.9499V10.0303H49.3523V26.4155C49.3523 27.8768 49.7359 29.0459 50.5031 29.9227C51.3068 30.763 52.3663 31.1831 53.6815 31.1831C55.0332 31.1831 56.0927 30.763 56.8599 29.9227C57.6271 29.0459 58.0107 27.8768 58.0107 26.4155V10.0303H70.1763ZM116.935 9.8111C120.881 9.8111 123.931 10.9984 126.087 13.3731C128.279 15.7478 129.375 18.9627 129.375 23.0179V40.9375H117.264V24.5523C117.264 23.2371 116.862 22.2142 116.058 21.4835C115.291 20.7163 114.25 20.3327 112.935 20.3327C111.583 20.3327 110.524 20.7163 109.756 21.4835C108.989 22.2142 108.606 23.2371 108.606 24.5523V40.9375H96.4949V24.5523C96.4949 23.2371 96.093 22.2142 95.2893 21.4835C94.5221 20.7163 93.4809 20.3327 92.1657 20.3327C90.8139 20.3327 89.7545 20.7163 88.9873 21.4835C88.2201 22.2142 87.8365 23.2371 87.8365 24.5523V40.9375H75.6709V10.0303H87.8365V14.1951C88.7133 12.8799 89.9006 11.8204 91.3985 11.0167C92.9329 10.213 94.723 9.8111 96.7689 9.8111C98.9974 9.8111 100.97 10.3043 102.687 11.2907C104.404 12.2406 105.774 13.5923 106.797 15.3459C107.93 13.7384 109.373 12.4232 111.126 11.4003C112.88 10.3408 114.816 9.8111 116.935 9.8111ZM146.811 14.2499C147.578 12.8251 148.674 11.7108 150.099 10.9071C151.56 10.0668 153.295 9.6467 155.305 9.6467C157.716 9.6467 159.89 10.286 161.826 11.5647C163.762 12.8068 165.278 14.6335 166.374 17.0447C167.507 19.4194 168.073 22.2324 168.073 25.4839C168.073 28.7354 167.507 31.5667 166.374 33.9779C165.278 36.3526 163.762 38.1792 161.826 39.4579C159.89 40.7 157.716 41.3211 155.305 41.3211C153.295 41.3211 151.56 40.9192 150.099 40.1155C148.674 39.2752 147.578 38.1427 146.811 36.7179V55.7335H134.645V10.0303H146.811V14.2499ZM155.743 25.4839C155.743 23.8399 155.323 22.5612 154.483 21.6479C153.642 20.7346 152.565 20.2779 151.249 20.2779C149.934 20.2779 148.857 20.7346 148.016 21.6479C147.176 22.5612 146.756 23.8399 146.756 25.4839C146.756 27.1279 147.176 28.4066 148.016 29.3199C148.857 30.2332 149.934 30.6899 151.249 30.6899C152.565 30.6899 153.642 30.2332 154.483 29.3199C155.323 28.4066 155.743 27.1279 155.743 25.4839ZM170.686 31.2379C175.582 27.5846 179.454 24.2783 182.304 21.3191C185.154 18.3234 186.578 15.5286 186.578 12.9347C186.578 12.0579 186.377 11.382 185.976 10.9071C185.61 10.4322 185.117 10.1947 184.496 10.1947C183.765 10.1947 183.181 10.5783 182.742 11.3455C182.34 12.0762 182.194 13.2087 182.304 14.7431H170.522C170.632 11.3455 171.362 8.5507 172.714 6.3587C174.102 4.1667 175.892 2.55923 178.084 1.5363C180.276 0.513365 182.688 0.00189845 185.318 0.00189845C189.994 0.00189845 193.41 1.13443 195.566 3.3995C197.758 5.62803 198.854 8.4959 198.854 12.0031C198.854 15.693 197.666 19.1636 195.292 22.4151C192.953 25.63 190.012 28.3518 186.469 30.5803H199.018V40.3895H170.686V31.2379ZM215.097 14.2499C215.864 12.8251 216.96 11.7108 218.385 10.9071C219.846 10.0668 221.581 9.6467 223.591 9.6467C226.002 9.6467 228.176 10.286 230.112 11.5647C232.048 12.8068 233.564 14.6335 234.66 17.0447C235.793 19.4194 236.359 22.2324 236.359 25.4839C236.359 28.7354 235.793 31.5667 234.66 33.9779C233.564 36.3526 232.048 38.1792 230.112 39.4579C228.176 40.7 226.002 41.3211 223.591 41.3211C221.581 41.3211 219.846 40.9192 218.385 40.1155C216.96 39.2752 215.864 38.1427 215.097 36.7179V40.9375H202.931V0.3855H215.097V14.2499ZM224.029 25.4839C224.029 23.8399 223.609 22.5612 222.769 21.6479C221.928 20.7346 220.851 20.2779 219.535 20.2779C218.22 20.2779 217.142 20.7346 216.302 21.6479C215.462 22.5612 215.042 23.8399 215.042 25.4839C215.042 27.1279 215.462 28.4066 216.302 29.3199C217.142 30.2332 218.22 30.6899 219.535 30.6899C220.851 30.6899 221.928 30.2332 222.769 29.3199C223.609 28.4066 224.029 27.1279 224.029 25.4839ZM238.534 25.4839C238.534 22.2324 239.082 19.4194 240.178 17.0447C241.31 14.6335 242.845 12.8068 244.781 11.5647C246.717 10.286 248.891 9.6467 251.302 9.6467C253.312 9.6467 255.047 10.0668 256.508 10.9071C257.97 11.7108 259.084 12.8251 259.851 14.2499V10.0303H271.962V40.9375H259.851V36.7179C259.084 38.1427 257.97 39.2752 256.508 40.1155C255.047 40.9192 253.312 41.3211 251.302 41.3211C248.891 41.3211 246.717 40.7 244.781 39.4579C242.845 38.1792 241.31 36.3526 240.178 33.9779C239.082 31.5667 238.534 28.7354 238.534 25.4839ZM259.851 25.4839C259.851 23.8399 259.431 22.5612 258.591 21.6479C257.75 20.7346 256.673 20.2779 255.357 20.2779C254.042 20.2779 252.965 20.7346 252.124 21.6479C251.284 22.5612 250.864 23.8399 250.864 25.4839C250.864 27.1279 251.284 28.4066 252.124 29.3199C252.965 30.2332 254.042 30.6899 255.357 30.6899C256.673 30.6899 257.75 30.2332 258.591 29.3199C259.431 28.4066 259.851 27.1279 259.851 25.4839ZM289.59 14.2499C290.358 12.8251 291.454 11.7108 292.878 10.9071C294.34 10.0668 296.075 9.6467 298.084 9.6467C300.496 9.6467 302.669 10.286 304.606 11.5647C306.542 12.8068 308.058 14.6335 309.154 17.0447C310.286 19.4194 310.853 22.2324 310.853 25.4839C310.853 28.7354 310.286 31.5667 309.154 33.9779C308.058 36.3526 306.542 38.1792 304.606 39.4579C302.669 40.7 300.496 41.3211 298.084 41.3211C296.075 41.3211 294.34 40.9192 292.878 40.1155C291.454 39.2752 290.358 38.1427 289.59 36.7179V40.9375H277.425V0.3855H289.59V14.2499ZM298.523 25.4839C298.523 23.8399 298.103 22.5612 297.262 21.6479C296.422 20.7346 295.344 20.2779 294.029 20.2779C292.714 20.2779 291.636 20.7346 290.796 21.6479C289.956 22.5612 289.536 23.8399 289.536 25.4839C289.536 27.1279 289.956 28.4066 290.796 29.3199C291.636 30.2332 292.714 30.6899 294.029 30.6899C295.344 30.6899 296.422 30.2332 297.262 29.3199C298.103 28.4066 298.523 27.1279 298.523 25.4839ZM349.579 10.0303L329.796 55.7335H316.48L324.262 39.4031L311.384 10.0303H324.919L330.728 25.7031L336.153 10.0303H349.579Z" fill="#D2376F"/>
</svg>
