<svg width="60" height="77" viewBox="0 0 60 77" fill="none" xmlns="http://www.w3.org/2000/svg">
<g clip-path="url(#clip0_3212_1140)">
<path d="M11.9758 12.171V54.9746C11.9758 54.9746 11.2084 68.6172 27.4089 76.1206H8.07916C8.07916 76.1206 0 74.5338 0 68.4925V8.68259C0.0602923 5.72827 2.95432 0.121094 8.98354 0.121094H19.2935C19.2935 0.121094 41.8913 0.86597 42.1685 23.4073C42.1685 23.4073 38.6234 11.6092 26.5286 11.9384C18.9315 12.0306 11.9758 12.171 11.9758 12.171Z" fill="#0D75A6"/>
<path d="M29.905 0C47.028 8.44091 49.5008 30.0792 35.8137 37.6224C56.7342 48.6624 40.7576 78.8623 20.0171 67.1656C20.0171 67.1656 26.5936 75.5732 40.1547 75.6065C56.3641 75.6463 70.6626 50.8867 48.9574 36.4165C62.5834 26.6492 59.81 0.602921 29.905 0Z" fill="#D2376F"/>
<path d="M28.0322 36.3943C32.0924 36.3943 35.3838 32.8739 35.3838 28.5311C35.3838 24.1884 32.0924 20.668 28.0322 20.668C23.9721 20.668 20.6807 24.1884 20.6807 28.5311C20.6807 32.8739 23.9721 36.3943 28.0322 36.3943Z" fill="#D2376F"/>
<path d="M20.8622 32.6797C18.5711 35.4531 5.48462 54.9172 22.8488 65.0463C21.5224 61.9111 22.537 59.0536 25.2334 57.3091C25.5073 57.1318 26.2583 56.4348 25.2032 55.7113C24.7639 55.4101 24.4797 50.2549 27.9465 51.7923C28.4155 52.0481 29.2032 53.1727 29.1825 54.4753C29.6095 55.2237 30.7139 55.3754 31.1721 54.3849C31.1721 54.3849 32.7391 51.65 26.0457 45.0419C26.0457 45.0419 25.7473 44.4664 26.3868 44.2958C28.9874 44.6369 33.0375 45.2124 35.1266 40.6081C35.2107 40.4468 35.1985 39.8496 34.8157 39.6739C34.3364 39.4539 33.5748 40.192 33.1222 40.4975C31.1543 41.8257 27.524 42.2507 24.0744 37.976C23.7892 37.6224 23.4866 36.9637 23.3295 36.5376C22.9938 35.6275 22.2664 34.0732 20.8622 32.6797Z" fill="#D2376F"/>
<path d="M25.4874 65.9051C35.4968 68.3358 40.0588 61.6674 39.8846 54.5183C39.8794 54.3066 39.7068 54.1861 39.5069 54.2559C37.0313 55.1206 29.7627 58.2441 27.9229 54.0374C27.8121 53.7843 27.6346 53.337 27.3794 53.2493C26.9786 53.1118 26.4376 53.3578 26.4433 54.494C26.4457 54.9685 26.6798 55.7068 26.945 56.1C27.6307 57.1163 29.26 58.8167 32.5314 58.9318C32.8288 58.9423 33.313 58.878 33.6071 58.917C34.194 58.9948 34.0129 59.4676 33.3717 59.5694C32.284 59.8142 30.8038 60.3042 27.8471 58.7606C27.2744 58.4616 26.2818 58.2137 25.7218 58.5245C24.1618 59.3903 22.6272 61.7958 23.8027 64.5702C24.0546 65.1646 24.8593 65.7525 25.4874 65.9051Z" fill="#D2376F"/>
<path d="M41.3378 50.7754C41.1714 51.2001 40.9322 51.5994 40.6458 51.9608C40.3057 52.3899 39.6321 52.983 39.1624 53.2642C38.7942 53.4847 38.4039 53.6564 37.9981 53.7736C37.3116 53.9719 36.1343 53.975 35.4198 53.9173C34.9196 53.8769 34.4242 53.7944 33.9955 53.6258C33.5101 53.4349 32.8994 52.7976 32.6897 52.3184C32.3179 51.4688 32.2026 50.3568 32.2026 49.4413C32.2026 47.2901 33.8939 45.1312 35.8953 44.5794C36.418 44.4353 37.3122 44.4376 37.8478 44.5284C38.2847 44.6025 38.7222 44.7261 39.1319 44.901C39.8565 45.2104 40.8167 46.1271 41.112 46.8549C41.276 47.2591 41.3944 47.7022 41.4728 48.1421C41.602 48.8679 41.6055 50.0921 41.3378 50.7754Z" fill="#D2376F"/>
</g>
<defs>
<clipPath id="clip0_3212_1140">
<rect width="59.9926" height="76.1201" fill="white"/>
</clipPath>
</defs>
</svg>
